<?xml version="1.0" encoding="UTF-8" standalone="no"?>
<svg
   xmlns:dc="http://purl.org/dc/elements/1.1/"
   xmlns:cc="http://creativecommons.org/ns#"
   xmlns:rdf="http://www.w3.org/1999/02/22-rdf-syntax-ns#"
   xmlns:svg="http://www.w3.org/2000/svg"
   xmlns="http://www.w3.org/2000/svg"
   xmlns:sodipodi="http://sodipodi.sourceforge.net/DTD/sodipodi-0.dtd"
   xmlns:inkscape="http://www.inkscape.org/namespaces/inkscape"
   width="2.8003399mm"
   height="2.80035mm"
   viewBox="0 0 2.8003399 2.80035"
   version="1.1"
   id="svg3289"
   inkscape:version="1.0.2 (e86c870879, 2021-01-15, custom)"
   sodipodi:docname="logo.svg">
  <defs
     id="defs3283" />
  <sodipodi:namedview
     id="base"
     pagecolor="#ffffff"
     bordercolor="#666666"
     borderopacity="1.0"
     inkscape:pageopacity="0.0"
     inkscape:pageshadow="2"
     inkscape:zoom="31.678384"
     inkscape:cx="0.51832526"
     inkscape:cy="7.2290916"
     inkscape:document-units="mm"
     inkscape:current-layer="layer1"
     inkscape:document-rotation="0"
     showgrid="false"
     fit-margin-top="0"
     fit-margin-left="0"
     fit-margin-right="0"
     fit-margin-bottom="0"
     inkscape:window-width="3840"
     inkscape:window-height="2096"
     inkscape:window-x="0"
     inkscape:window-y="33"
     inkscape:window-maximized="1" />
  <metadata
     id="metadata3286">
    <rdf:RDF>
      <cc:Work
         rdf:about="">
        <dc:format>image/svg+xml</dc:format>
        <dc:type
           rdf:resource="http://purl.org/dc/dcmitype/StillImage" />
        <dc:title></dc:title>
      </cc:Work>
    </rdf:RDF>
  </metadata>
  <g
     inkscape:label="Layer 1"
     inkscape:groupmode="layer"
     id="layer1"
     transform="translate(-110.85876,-80.620658)">
    <path
       id="path890-3-3-0-3-5-9-7-7-9"
       style="font-style:normal;font-variant:normal;font-weight:bold;font-stretch:normal;font-size:4.5861px;line-height:6.61458px;font-family:'Open Sans';-inkscape-font-specification:'Open Sans Bold';font-variation-settings:normal;text-align:center;text-anchor:middle;vector-effect:none;fill:#000000;fill-opacity:1;stroke:none;stroke-width:0.047625;stroke-linecap:butt;stroke-linejoin:miter;stroke-miterlimit:4;stroke-dasharray:none;stroke-dashoffset:0;stroke-opacity:1;stop-color:#000000"
       d="m 112.25867,80.620658 c -0.4095,0 -0.75942,0.14448 -1.00769,0.39275 -0.24827,0.24826 -0.39222,0.59818 -0.39222,1.00769 0,0.4095 0.14395,0.7594 0.39222,1.00768 0.24827,0.24828 0.59819,0.39223 1.00769,0.39223 0.4095,0 0.75942,-0.14395 1.00769,-0.39223 0.24827,-0.24828 0.39275,-0.59818 0.39274,-1.00768 0,-0.40951 -0.14447,-0.75943 -0.39274,-1.00769 -0.24827,-0.24827 -0.59819,-0.39275 -1.00769,-0.39275 z m 0.49816,0.8077 c 0.15201,0.12479 0.2492,0.28944 0.28525,0.48215 h -0.3948 c -10e-4,-0.006 -0.002,-0.0123 -0.004,-0.0176 -0.004,-0.0161 -0.008,-0.0237 -0.01,-0.0274 v -0.002 c -0.001,-0.005 -0.003,-0.0141 -0.01,-0.0295 1e-5,-7.9e-4 1e-5,-10e-4 0,-0.002 -0.004,-0.0101 -0.01,-0.0183 -0.0134,-0.0253 -0.007,-0.0123 -0.0125,-0.0177 -0.016,-0.0233 1e-5,-7.9e-4 1e-5,-10e-4 0,-0.002 -0.007,-0.0111 -0.0139,-0.0165 -0.0176,-0.0212 -5.3e-4,-0.001 -10e-4,-0.003 -0.002,-0.004 -5.3e-4,-8e-4 -0.003,-0.003 -0.004,-0.004 z m -0.96428,0.009 0.18293,0.31471 c -0.002,0.002 -0.003,0.002 -0.006,0.006 -1e-5,7.9e-4 -1e-5,0.001 0,0.002 -0.003,0.004 -0.009,0.008 -0.0176,0.0212 -1e-5,7.9e-4 -1e-5,5.3e-4 0,0.002 -0.008,0.0121 -0.0117,0.0221 -0.0134,0.0253 -7.9e-4,-10e-6 -0.001,-10e-6 -0.002,0 -0.003,0.006 -0.007,0.0123 -0.0119,0.0233 -0.007,0.0157 -0.01,0.0274 -0.0114,0.0336 -0.003,0.009 -0.006,0.0177 -0.008,0.0274 -0.001,0.004 -0.002,0.009 -0.002,0.0134 v 0.002 c -1.1e-4,5.3e-4 1.1e-4,0.002 0,0.002 h -0.39842 c 0.0369,-0.18869 0.1359,-0.34926 0.28732,-0.47284 z m 0.48111,0.55087 c 0.0134,-1.1e-4 0.0275,0.0139 0.0274,0.0274 -1.1e-4,0.0134 -0.0149,0.0284 -0.0284,0.0284 -0.0135,6e-5 -0.0275,-0.0145 -0.0274,-0.0279 1.1e-4,-0.0134 0.015,-0.0278 0.0284,-0.0279 z m 0.0713,0.40411 0.19637,0.34106 c -0.0882,0.0379 -0.17834,0.067 -0.26924,0.0672 -0.0909,1.5e-4 -0.1794,-0.028 -0.26665,-0.0651 l 0.19741,-0.3421 c 0.0487,-0.001 0.0952,-7.9e-4 0.14211,-0.001 z"
       sodipodi:nodetypes="sssssssssccccccccccccccccccccccccccscsccsscsscccccc" />
    <path
       id="path890-3-3-0-3-1"
       style="font-style:normal;font-variant:normal;font-weight:bold;font-stretch:normal;font-size:4.5861px;line-height:6.61458px;font-family:'Open Sans';-inkscape-font-specification:'Open Sans Bold';font-variation-settings:normal;text-align:center;text-anchor:middle;vector-effect:none;fill:#ffffff;fill-opacity:1;stroke:none;stroke-width:0.047625;stroke-linecap:butt;stroke-linejoin:miter;stroke-miterlimit:4;stroke-dasharray:none;stroke-dashoffset:0;stroke-opacity:1;stop-color:#000000"
       d="m 112.19976,80.689388 a 1.2733805,1.2733805 0 0 0 -1.27331,1.27331 1.2733805,1.2733805 0 0 0 1.27331,1.27331 1.2733805,1.2733805 0 0 0 1.27331,-1.27331 1.2733805,1.2733805 0 0 0 -1.27331,-1.27331 z m 0.45733,0.46044 0.017,0.0103 c 0.29248,0.16891 0.45955,0.45965 0.46096,0.79737 v 0.0202 h -0.66973 v -0.0202 c 0,-0.008 -0.001,-0.0172 -0.002,-0.0258 -6.9e-4,-0.008 -10e-4,-0.0166 -0.003,-0.0243 -0.002,-0.008 -0.005,-0.0158 -0.007,-0.0238 -0.002,-0.008 -0.005,-0.0162 -0.009,-0.0243 -0.003,-0.007 -0.006,-0.0134 -0.01,-0.0202 -0.003,-0.006 -0.009,-0.0128 -0.014,-0.0207 -0.004,-0.006 -0.009,-0.0119 -0.0139,-0.0186 -0.005,-0.006 -0.0106,-0.0127 -0.0155,-0.0176 -0.007,-0.007 -0.0118,-0.013 -0.017,-0.017 -0.007,-0.005 -0.0125,-0.01 -0.0186,-0.0134 h -0.002 v -0.002 c -0.003,-0.002 -0.009,-0.004 -0.0155,-0.009 l -0.0176,-0.0103 0.32556,-0.56224 z m -0.87798,0.0119 0.3297,0.56947 -0.0171,0.0103 c -0.005,0.003 -0.0101,0.007 -0.0155,0.0108 -0.006,0.004 -0.0119,0.008 -0.0186,0.0134 -0.006,0.005 -0.0119,0.0114 -0.0176,0.0171 -0.006,0.006 -0.0127,0.011 -0.0171,0.0165 -0.005,0.007 -0.009,0.0124 -0.0134,0.0186 -0.005,0.008 -0.009,0.0146 -0.0124,0.0207 -0.004,0.007 -0.007,0.0139 -0.01,0.0212 l -0.002,0.002 c -0.003,0.007 -0.006,0.0139 -0.008,0.0222 -0.002,0.005 -0.004,0.0135 -0.006,0.0222 v 0.002 c -10e-4,0.009 -0.003,0.0178 -0.003,0.0238 -7e-4,0.009 -0.002,0.0175 -0.002,0.0258 v 0.0207 h -0.6718 v -0.0207 c 0,-0.32902 0.16895,-0.60609 0.44752,-0.77669 z m 0.4284,0.62115 h 5.2e-4 0.001 c 0.002,-2e-5 0.004,-4e-5 0.006,0 0.096,0 0.17415,0.0781 0.17415,0.17415 0,0.096 -0.0782,0.17465 -0.17415,0.17466 -0.096,-1e-5 -0.17414,-0.0788 -0.17415,-0.17466 -8e-5,-0.0929 0.0736,-0.16985 0.1664,-0.17415 z m -0.13488,0.37827 0.0186,0.0124 c 0.002,0.001 0.004,0.002 0.005,0.003 0.007,0.004 0.0155,0.008 0.0222,0.0109 v 0.002 c 0.006,0.003 0.0133,0.004 0.0222,0.007 0.007,0.002 0.0155,0.005 0.0243,0.007 0.007,0.002 0.0161,0.002 0.0238,0.003 0.009,6.9e-4 0.0174,0.002 0.0258,0.002 0.008,0 0.0171,-0.001 0.0258,-0.002 0.008,-7e-4 0.0167,-10e-4 0.0243,-0.003 0.008,-0.002 0.015,-0.004 0.0233,-0.007 0.008,-0.002 0.0168,-0.005 0.0243,-0.009 0.007,-0.003 0.0134,-0.006 0.0207,-0.0109 10e-4,-6.9e-4 0.003,-6.8e-4 0.006,-0.003 l 0.0191,-0.0124 0.33538,0.58291 -0.0186,0.0103 c -0.29246,0.16889 -0.62788,0.16889 -0.92035,0 l -0.0171,-0.0103 0.32556,-0.56379 z" />
  </g>
</svg>
