<?xml version="1.0" encoding="UTF-8" standalone="no"?>
<!-- Created with Inkscape (http://www.inkscape.org/) -->

<svg
   width="34.757111mm"
   height="34.757111mm"
   viewBox="0 0 34.757111 34.757111"
   version="1.1"
   id="svg5"
   inkscape:version="1.2.1 (9c6d41e410, 2022-07-14)"
   sodipodi:docname="logo.svg"
   inkscape:export-filename="icon-192.png"
   inkscape:export-xdpi="140.31085"
   inkscape:export-ydpi="140.31085"
   xmlns:inkscape="http://www.inkscape.org/namespaces/inkscape"
   xmlns:sodipodi="http://sodipodi.sourceforge.net/DTD/sodipodi-0.dtd"
   xmlns="http://www.w3.org/2000/svg"
   xmlns:svg="http://www.w3.org/2000/svg">
  <sodipodi:namedview
     id="namedview7"
     pagecolor="#ffffff"
     bordercolor="#666666"
     borderopacity="1.0"
     inkscape:showpageshadow="2"
     inkscape:pageopacity="0.0"
     inkscape:pagecheckerboard="0"
     inkscape:deskcolor="#d1d1d1"
     inkscape:document-units="mm"
     showgrid="false"
     showguides="true"
     inkscape:zoom="6.350604"
     inkscape:cx="13.778217"
     inkscape:cy="81.252114"
     inkscape:window-width="3840"
     inkscape:window-height="2102"
     inkscape:window-x="0"
     inkscape:window-y="27"
     inkscape:window-maximized="1"
     inkscape:current-layer="layer1">
    <sodipodi:guide
       position="-32.501806,40.046652"
       orientation="0,-1"
       id="guide3861"
       inkscape:locked="false" />
    <sodipodi:guide
       position="-18.461949,30.411462"
       orientation="1,0"
       id="guide3863"
       inkscape:locked="false" />
  </sodipodi:namedview>
  <defs
     id="defs2">
    <filter
       style="color-interpolation-filters:sRGB;"
       inkscape:label="Blur"
       id="filter2062"
       x="-0.074509483"
       y="-0.074509472"
       width="1.149019"
       height="1.1490189">
      <feGaussianBlur
         stdDeviation="1 1"
         result="blur"
         id="feGaussianBlur2060" />
    </filter>
  </defs>
  <g
     inkscape:label="Layer 1"
     inkscape:groupmode="layer"
     id="layer1"
     transform="translate(-87.048813,-63.572643)">
    <rect
       style="fill:#000000;stroke-width:2.64599;stroke-linejoin:round;stop-color:#000000;fill-opacity:1"
       id="rect349"
       width="34.845947"
       height="34.812336"
       x="86.980637"
       y="63.573318" />
    <path
       id="path4697-3-6"
       style="fill:#ff9900;stroke-width:2.45214;stroke-linejoin:round;stop-color:#000000"
       inkscape:transform-center-x="0.0017364594"
       inkscape:transform-center-y="1.6158155"
       d="m 104.37884,80.287702 11.20397,-0.0055 -5.59726,9.705655 z m -0.003,0.0012 -5.597258,9.705655 -5.606714,-9.700195 z m 9e-4,-3.57e-4 -5.606709,-9.700195 11.203969,-0.0055 z m -16.054775,-15.570418 4e-6,32.21067 H 120.53263 V 64.718128 Z M 104.16846,68.22898 A 12.312866,12.312866 0 0 1 116.48126,80.541599 12.312866,12.312866 0 0 1 104.16862,92.854724 12.312866,12.312866 0 0 1 91.855489,80.541599 12.312866,12.312866 0 0 1 104.16862,68.228952 Z" />
    <path
       id="path4697-3-6-3"
       style="fill:#ff9900;stroke-width:2.45214;stroke-linejoin:round;stop-color:#000000;filter:url(#filter2062)"
       inkscape:transform-center-x="0.0017364594"
       inkscape:transform-center-y="1.6158155"
       d="m 104.37884,80.287702 11.20397,-0.0055 -5.59726,9.705655 z m -0.003,0.0012 -5.597258,9.705655 -5.606714,-9.700195 z m 9e-4,-3.57e-4 -5.606709,-9.700195 11.203969,-0.0055 z m -16.054775,-15.570418 4e-6,32.21067 H 120.53263 V 64.718128 Z M 104.16846,68.22898 A 12.312866,12.312866 0 0 1 116.48126,80.541599 12.312866,12.312866 0 0 1 104.16862,92.854724 12.312866,12.312866 0 0 1 91.855489,80.541599 12.312866,12.312866 0 0 1 104.16862,68.228952 Z" />
  </g>
</svg>
