<?xml version="1.0" encoding="UTF-8"?>
<svg width="35mm" height="35mm" version="1.1" viewBox="0 0 35 35" xmlns="http://www.w3.org/2000/svg"><g transform="translate(-87 -64)" fill="#0f0"><path d="m87 64v35h35v-35h-35zm17 3.8a13 13 0 0 1 13 13 13 13 0 0 1-13 13 13 13 0 0 1-13-13 13 13 0 0 1 13-13z" stop-color="#000000"/><path transform="rotate(63 80 90)" d="m83 64-12 0.55 5.6-11z" stop-color="#000000"/><path transform="rotate(-57 109 52)" d="m83 64-12 0.55 5.6-11z" stop-color="#000000"/><path transform="rotate(183 94 72)" d="m83 64-12 0.55 5.6-11z" stop-color="#000000"/></g></svg>
